<?xml version="1.0" standalone="no"?>
<!DOCTYPE svg PUBLIC "-//W3C//DTD SVG 20010904//EN"
 "http://www.w3.org/TR/2001/REC-SVG-20010904/DTD/svg10.dtd">
<svg version="1.0" xmlns="http://www.w3.org/2000/svg"
 width="1024.000000pt" height="1024.000000pt" viewBox="0 0 1024.000000 1024.000000"
 preserveAspectRatio="xMidYMid meet">
<metadata>
Created by potrace 1.14, written by Peter Selinger 2001-2017
</metadata>
<g transform="translate(0.000000,1024.000000) scale(0.100000,-0.100000)"
fill="#000000" stroke="none">
<path d="M5570 9490 c-782 -95 -1383 -543 -1633 -1220 -19 -52 -121 -390 -228
-751 l-192 -656 -221 -7 c-122 -3 -444 -8 -716 -11 -540 -7 -700 -15 -869 -45
-744 -134 -1350 -690 -1540 -1411 -39 -150 -53 -246 -53 -383 0 -227 50 -387
171 -545 137 -182 368 -302 664 -345 120 -18 432 -20 1167 -7 250 5 456 8 457
7 1 -1 -142 -490 -318 -1086 -176 -597 -328 -1118 -339 -1159 -53 -199 -62
-417 -25 -581 22 -96 90 -239 149 -312 134 -167 374 -292 661 -344 79 -15 148
-18 325 -18 195 1 244 5 370 27 616 109 1104 438 1389 937 85 148 138 283 223
573 40 136 76 247 80 247 10 0 334 -194 598 -358 207 -129 320 -185 460 -230
313 -100 624 -107 953 -23 548 142 1113 609 1376 1138 87 175 128 327 137 503
15 275 -77 508 -281 713 l-77 77 32 0 c59 0 283 50 405 91 200 66 408 177 580
308 90 68 279 255 350 346 197 251 333 565 376 864 18 131 7 336 -25 444 -67
226 -207 403 -409 517 -54 30 -57 34 -44 54 184 290 289 595 303 886 13 267
-60 486 -219 656 -168 180 -415 283 -738 309 -82 7 -1495 -9 -1761 -20 l-128
-5 0 35 c0 58 -29 185 -59 256 -110 262 -351 433 -721 511 -75 15 -144 20
-325 23 -126 2 -264 0 -305 -5z m215 -960 c80 -31 121 -73 130 -133 10 -67 -7
-151 -87 -424 -40 -134 -69 -245 -66 -249 3 -3 617 4 1364 16 958 16 1377 19
1421 12 147 -24 205 -81 211 -206 7 -133 -51 -313 -142 -440 -51 -71 -93 -107
-170 -142 -118 -54 -92 -52 -1566 -76 -756 -11 -1376 -21 -1377 -22 -5 -3
-263 -889 -263 -903 0 -15 23 -15 258 -10 141 4 916 16 1722 28 1158 18 1477
20 1521 10 213 -45 262 -254 128 -538 -95 -201 -250 -296 -504 -308 -55 -3
-865 -17 -1800 -31 -935 -14 -1703 -29 -1706 -32 -13 -16 -51 -166 -42 -169
24 -8 674 -338 813 -413 735 -394 1443 -799 1681 -962 104 -70 192 -161 221
-224 60 -136 -33 -330 -242 -505 -41 -34 -108 -78 -150 -98 -71 -34 -80 -36
-180 -36 -126 0 -216 21 -321 74 -41 20 -202 116 -359 212 -676 417 -1738
1016 -1760 993 -4 -5 -141 -463 -305 -1019 -163 -555 -307 -1036 -320 -1067
-34 -84 -100 -172 -159 -212 -166 -114 -510 -141 -694 -56 -55 26 -65 35 -84
77 -41 93 -33 128 206 938 726 2462 723 2450 707 2454 -9 2 -518 -4 -1131 -14
-1136 -18 -1356 -17 -1423 4 -61 20 -105 65 -124 130 -14 48 -14 67 -4 139 15
104 58 234 102 308 97 161 214 233 414 254 49 5 644 16 1320 26 867 12 1233
20 1241 28 6 6 158 513 339 1126 180 613 341 1148 357 1188 45 108 102 181
174 219 121 64 220 83 429 79 139 -2 168 -6 220 -26z"/>
</g>
</svg>
